<svg width="32" height="32" viewBox="0 0 32 32" fill="none" xmlns="http://www.w3.org/2000/svg">
<path fill-rule="evenodd" clip-rule="evenodd" d="M11.6667 2.66669C11.6667 2.1144 11.219 1.66669 10.6667 1.66669C10.1144 1.66669 9.66667 2.1144 9.66667 2.66669V4.66669H8C5.79086 4.66669 4 6.45754 4 8.66668V11H28V8.66669C28 6.45755 26.2091 4.66669 24 4.66669H22.3333V2.66669C22.3333 2.1144 21.8856 1.66669 21.3333 1.66669C20.781 1.66669 20.3333 2.1144 20.3333 2.66669V4.66669H11.6667L11.6667 2.66669ZM4 13H28V25.3334C28 27.5425 26.2091 29.3334 24 29.3334H8C5.79086 29.3334 4 27.5425 4 25.3334V13ZM16 21.3334C16.7364 21.3334 17.3333 20.7364 17.3333 20C17.3333 19.2636 16.7364 18.6667 16 18.6667C15.2636 18.6667 14.6667 19.2636 14.6667 20C14.6667 20.7364 15.2636 21.3334 16 21.3334ZM22.6667 20C22.6667 20.7364 22.0697 21.3334 21.3333 21.3334C20.597 21.3334 20 20.7364 20 20C20 19.2636 20.597 18.6667 21.3333 18.6667C22.0697 18.6667 22.6667 19.2636 22.6667 20ZM10.6667 21.3334C11.403 21.3334 12 20.7364 12 20C12 19.2636 11.403 18.6667 10.6667 18.6667C9.93029 18.6667 9.33333 19.2636 9.33333 20C9.33333 20.7364 9.93029 21.3334 10.6667 21.3334Z" fill="#7AB8FF"/>
</svg>
