<svg width="32" height="32" viewBox="0 0 32 32" fill="none" xmlns="http://www.w3.org/2000/svg">
<path fill-rule="evenodd" clip-rule="evenodd" d="M20.5587 4.90278C21.7624 3.69907 23.714 3.69907 24.9177 4.90278L27.0972 7.08228C28.3009 8.28598 28.3009 10.2376 27.0972 11.4413L25.1648 13.3737C25.0131 13.2986 24.8535 13.2174 24.688 13.1302C23.5741 12.5438 22.2523 11.7208 21.2658 10.7343C20.2793 9.74776 19.4562 8.42593 18.8698 7.31204C18.7827 7.14652 18.7014 6.9869 18.6263 6.83518L20.5587 4.90278ZM19.8516 12.1485C21.0189 13.3158 22.5035 14.2346 23.6793 14.8592L16.0801 22.4584C15.6085 22.93 14.9967 23.2359 14.3365 23.3302L9.7595 23.9841C8.7424 24.1294 7.8706 23.2576 8.0159 22.2405L8.66975 17.6635C8.76407 17.0033 9.06997 16.3915 9.54155 15.9199L17.1408 8.3207C17.7654 9.49646 18.6842 10.9811 19.8516 12.1485ZM5 26C4.44772 26 4 26.4477 4 27C4 27.5523 4.44772 28 5 28H27C27.5523 28 28 27.5523 28 27C28 26.4477 27.5523 26 27 26H5Z" fill="#7AB8FF"/>
</svg>
