<svg width="32" height="32" viewBox="0 0 32 32" fill="none" xmlns="http://www.w3.org/2000/svg">
<path fill-rule="evenodd" clip-rule="evenodd" d="M28.1731 18.8626C29.7192 17.2358 29.7192 14.7642 28.1731 13.1375C25.5654 10.3938 21.0867 6.66669 15.9993 6.66669C10.912 6.66669 6.43334 10.3938 3.82562 13.1375C2.27948 14.7642 2.27948 17.2358 3.82562 18.8626C6.43334 21.6062 10.912 25.3334 15.9993 25.3334C21.0867 25.3334 25.5654 21.6062 28.1731 18.8626ZM15.9993 20C18.2085 20 19.9993 18.2092 19.9993 16C19.9993 13.7909 18.2085 12 15.9993 12C13.7902 12 11.9993 13.7909 11.9993 16C11.9993 18.2092 13.7902 20 15.9993 20Z" fill="#7AB8FF"/>
</svg>
