<svg width="60" height="47" viewBox="0 0 60 47" fill="none" xmlns="http://www.w3.org/2000/svg">
<ellipse cx="37.1147" cy="23.8462" rx="22.7904" ry="23.1538" fill="black"/>
<path d="M36.3984 17.965C36.3984 17.965 33.9135 22.5061 33.3148 23.3167C32.716 24.1272 30.7454 24.2129 27.4315 23.8085C24.1195 23.4041 22.4348 23.4332 22.4348 23.4332C22.4348 23.4332 24.1195 18.6609 30.6303 18.4004C30.6303 18.4004 21.435 18.6317 20.6079 18.863C19.7808 19.0944 14.6402 23.5207 14.6402 23.5207H14.241C14.241 23.5207 18.8674 19.4423 21.1222 18.2273C21.1222 18.2273 29.2314 17.129 36.3984 17.9669V17.965Z" fill="white"/>
<path d="M35.3162 23.2602C35.3162 23.2602 37.2006 18.5443 38.5707 18.1108C39.9408 17.6772 47.7084 18.8631 47.7084 18.8631C47.7084 18.8631 48.5643 18.69 50.5925 22.8558C50.5925 22.8558 51.0492 23.2602 50.107 23.2602C49.1648 23.2602 40.1692 23.8103 36.5712 24.5917C36.5712 24.5917 43.0946 23.2839 46.7662 23.2602L44.8243 18.7756L41.9978 18.5443C41.9978 18.5443 43.5675 22.7975 41.6543 23.2894L40.7985 18.6609L38.3136 18.6026C38.3136 18.6026 34.9728 24.4169 35.6291 24.8504C35.6291 24.8504 34.7444 24.5662 35.3144 23.2602H35.3162Z" fill="white"/>
<path d="M48.0703 18.0142C48.0703 18.0142 39.0854 16.1763 36.7624 17.6499C36.7624 17.6499 31.699 16.3694 22.1424 17.6499C22.1424 17.6499 36.8397 14.6499 48.0703 18.0142Z" fill="white"/>
<path d="M29.5273 24.6391L15.8208 27.2621C15.8208 27.2621 4.13165 26.8759 4.36 26.1437C4.58835 25.4114 13.4977 23.6373 13.4977 23.6373C13.4977 23.6373 27.8516 24.4861 29.5273 24.6409V24.6391Z" fill="white"/>
<path d="M34.1328 25.2949C34.1328 25.2949 25.2163 27.4461 18.4466 27.2621C18.4466 27.2621 32.1532 24.1764 34.1328 25.2949Z" fill="white"/>
<path d="M24.6543 27.9561C24.6543 27.9561 5.88448 28.7503 1.96292 27.273C1.96292 27.273 1.27786 29.3058 2.83857 29.4989C2.83857 29.4989 2.38186 31.0326 2.76305 31.3277C3.14424 31.621 15.3656 32.3532 15.8978 32.0072C16.4301 31.6611 16.9425 30.0399 16.9425 30.0399L19.7043 29.9634L20.58 30.5426L23.8542 30.2348C23.8542 30.2348 25.2998 27.9342 24.6543 27.9597V27.9561Z" fill="white"/>
<path d="M23.7031 32.5063C23.7031 32.5063 4.43699 34.397 0.63051 31.6192C0.63051 31.6192 0.0587292 33.3551 0.439917 36.479C0.439917 36.479 0.249325 34.0491 0.743788 32.4298C0.743788 32.4298 0.781549 34.5118 1.54392 34.5901C2.3063 34.6684 14.5654 35.0528 16.1261 35.9399C16.1261 35.9399 17.9925 38.1767 18.6398 38.2933C19.2871 38.4098 22.7897 38.4663 22.7897 38.4663C22.7897 38.4663 19.1163 38.3898 18.5823 38.0419C18.0482 37.694 14.7524 34.2112 15.1929 33.6247C15.1929 33.6247 22.5991 33.683 23.7031 32.5063Z" fill="white"/>
<path d="M23.9448 40.9363C24.5652 43.419 26.3291 45.2751 28.4688 45.5484C28.2476 45.5721 28.0246 45.583 27.7963 45.583C25.4336 45.583 23.3641 44.3116 22.2187 42.4081C22.8804 42.399 23.3623 42.3826 23.3623 42.3826L23.9448 40.9381V40.9363Z" fill="white"/>
<path d="M32.4623 38.9672C32.4623 36.5974 30.9195 34.6757 29.0172 34.6757C27.1149 34.6757 25.6548 36.4954 25.5757 38.7796C25.5739 38.7177 25.5721 38.6539 25.5721 38.592C25.5721 36.0145 27.2497 33.9234 29.3193 33.9234C31.3888 33.9234 33.0664 36.0127 33.0664 38.592C33.0664 41.1712 31.3888 43.2605 29.3193 43.2605C29.2689 43.2605 29.2186 43.2587 29.1682 43.2551C31.0004 43.1567 32.4623 41.2751 32.4623 38.969V38.9672Z" fill="white"/>
<path d="M26.5793 32.4698C27.0486 31.468 27.4837 30.7066 27.7768 30.5409C28.8053 29.9616 32.1173 29.6155 32.8779 29.8469C33.6385 30.0782 34.782 33.3187 34.4008 37.4444C34.4008 37.4444 34.0197 31.0709 27.5089 32.0964L27.401 32.366L27.3111 32.5864C26.9425 32.7249 26.5919 32.9143 26.27 33.1475C26.3743 32.9125 26.4768 32.6848 26.5775 32.468L26.5793 32.4698Z" fill="white"/>
<path d="M26.625 34.2877L24.8234 38.7523C24.8234 38.6976 24.8198 38.6448 24.8198 38.5901C24.8198 36.8433 25.5264 35.2877 26.625 34.2859V34.2877Z" fill="white"/>
<path d="M1.12562 37.3861C1.18316 37.3096 1.28205 35.2076 1.81427 35.0436C2.34649 34.8797 14.3755 36.0182 14.3755 36.0182C14.3755 36.0182 15.9721 36.2877 16.9431 37.9854C17.7037 39.3115 18.5667 39.3661 21.271 39.1785C21.9543 39.1311 22.758 39.0692 23.7038 39.0073C23.8045 39 23.9034 38.9945 24.0076 38.9872C24.0076 38.9872 24.0454 38.8779 24.1155 38.683C24.1713 39.082 24.2648 39.4645 24.3906 39.8288L23.9447 40.9363L23.3621 42.3807C23.3621 42.3807 22.8821 42.399 22.2186 42.4062C20.915 42.4226 18.9048 42.4062 18.4499 42.1494C17.7648 41.7632 17.5454 41.2623 17.5454 41.2623C17.5454 41.2623 7.21742 40.4135 5.77179 40.1822C5.77179 40.1822 5.54344 40.6448 5.23956 40.6831C4.9357 40.7213 2.45977 40.4517 2.07859 40.2969C1.6974 40.1421 0.818151 39.1403 0.613174 37.3843C0.613174 37.3843 1.06988 37.4608 1.12742 37.3843L1.12562 37.3861Z" fill="white"/>
<path d="M26.0255 42.2423C25.2991 41.6394 24.7292 40.8033 24.3911 39.8288L24.8262 38.7523C24.8604 40.0929 25.3081 41.3115 26.0273 42.2423H26.0255Z" fill="white"/>
<path d="M27.3114 32.5864C27.7663 32.4152 28.2518 32.3223 28.7552 32.3223C30.1469 32.3223 31.3965 33.0236 32.2578 34.1384C31.4864 33.499 30.5443 33.1219 29.5248 33.1219C28.4298 33.1219 27.4228 33.5573 26.6227 34.2859L27.2538 32.7212L27.3096 32.5846L27.3114 32.5864Z" fill="white"/>
<path d="M26.1707 33.3806C26.2049 33.3023 26.2391 33.2258 26.2714 33.1493C26.5951 32.9161 26.9439 32.7248 27.3125 32.5882L27.2568 32.7248L26.6256 34.2895C25.527 35.2914 24.8204 36.8451 24.8204 38.5938C24.8204 38.6484 24.8222 38.7013 24.824 38.7559L24.3889 39.8324C24.263 39.4681 24.1695 39.0856 24.1138 38.6867C24.414 37.8415 25.3023 35.3843 26.1689 33.3842L26.1707 33.3806Z" fill="white"/>
<path d="M34.4764 38.7523L46.9639 35.8633L47.2695 34.7449L34.4764 37.7523V38.7523Z" fill="white"/>
<path d="M46.9661 34.9763L48.9367 28.7284C48.9367 28.7284 49.3071 27.6865 51.4504 27.7157C51.4504 27.7157 52.3926 28.0144 52.3926 29.774C52.3926 31.5336 52.4501 33.1329 51.9359 33.9234C51.9359 33.9234 51.9934 30.7813 50.4795 30.0873H49.0231L46.9679 35.8633V34.9763H46.9661Z" fill="white"/>
<path d="M49.4961 40.1257H46.621C46.621 40.1257 45.2311 37.9854 45.3839 35.8633L46.7541 35.7668L47.5542 33.8378C47.5542 33.8378 47.2881 38.7942 49.4961 40.1257Z" fill="white"/>
<path d="M50.112 31.6192C49.3064 31.6192 48.6466 33.1073 48.5908 34.9944C48.589 34.9088 48.5872 34.8214 48.5872 34.734C48.5872 32.7266 49.2705 31.0982 50.112 31.0982C50.9535 31.0982 51.6367 32.7266 51.6367 34.734C51.6367 34.8214 51.6367 34.9088 51.6331 34.9944C51.5774 33.1092 50.9175 31.6192 50.112 31.6192Z" fill="white"/>
<path d="M6.22142 39.0073C6.72128 40.6594 8.15613 41.9891 10.0117 42.5538C9.38779 42.7432 8.71712 42.8471 8.01768 42.8471C5.23609 42.8471 2.89682 41.215 2.23154 39.0073H6.22142Z" fill="white"/>
<path d="M28.9886 42.4117C27.4981 42.4117 26.2897 40.8875 26.2897 39.0073C26.2897 37.1271 27.4981 35.6028 28.9886 35.6028C30.4792 35.6028 31.6875 37.1271 31.6875 39.0073C31.6875 40.8875 30.4792 42.4117 28.9886 42.4117Z" fill="white"/>
<path d="M50.112 38.4663C49.2699 38.4663 48.5872 37.0334 48.5872 35.2659C48.5872 33.4983 49.2699 32.0655 50.112 32.0655C50.9541 32.0655 51.6367 33.4983 51.6367 35.2659C51.6367 37.0334 50.9541 38.4663 50.112 38.4663Z" fill="white"/>
<path d="M51.2299 27.7138L35.105 29.6847C35.105 29.6847 36.8185 33.1966 35.47 36.5209L42.9121 34.7449C42.9121 34.7449 43.2969 31.7813 42.6244 29.774C42.6244 29.774 43.8939 32.3879 43.7914 34.4626L47.7687 33.6101C47.7687 33.6101 49.3384 29.1583 49.9083 28.9233C50.4783 28.6865 51.3594 28.9233 51.3594 28.9233L51.2299 27.7157V27.7138Z" fill="white"/>
<path d="M52.8377 33.6083C52.8377 33.6083 54.0819 32.0564 54.1341 31.5919C54.1862 31.1274 54.704 26.3951 54.5494 26.1619C54.3948 25.9288 53.3699 20.4314 48.5853 18.0161C48.5853 18.0161 52.5787 20.293 54.0298 26.7339C54.0298 26.7339 53.5119 27.2257 53.4076 27.7138C53.3034 28.202 52.8377 33.6083 52.8377 33.6083Z" fill="white"/>
</svg>
