<svg width="32" height="32" viewBox="0 0 32 32" fill="none" xmlns="http://www.w3.org/2000/svg">
<path d="M31.9895 16.0006C31.9895 24.0816 26.0011 30.7623 18.2217 31.8464C17.4943 31.9473 16.7501 32 15.9947 32C15.1228 32 14.2665 31.9305 13.4326 31.796C5.81688 30.5695 0 23.9638 0 16.0006C0 7.16393 7.16182 0 15.9959 0C24.8299 0 31.9917 7.16393 31.9917 16.0006H31.9895Z" fill="#7AB8FF"/>
<path d="M18.2216 12.8482V16.3337H22.5321L21.8496 21.029H18.2216V31.8466C17.4942 31.9475 16.75 32.0002 15.9946 32.0002C15.1226 32.0002 14.2663 31.9307 13.4325 31.7961V21.029H9.45703V16.3337H13.4325V12.069C13.4325 9.42316 15.5765 7.27734 18.2227 7.27734V7.27959C18.2305 7.27959 18.2373 7.27734 18.2451 7.27734H22.5332V11.338H19.7313C18.8985 11.338 18.2227 12.0141 18.2227 12.8471L18.2216 12.8482Z" fill="white"/>
</svg>
