<svg width="32" height="32" viewBox="0 0 32 32" fill="none" xmlns="http://www.w3.org/2000/svg">
<path fill-rule="evenodd" clip-rule="evenodd" d="M7.66016 2.66666C4.89873 2.66666 2.66016 4.90523 2.66016 7.66665V24.3333C2.66016 27.0947 4.89873 29.3333 7.66015 29.3333H24.3268C27.0882 29.3333 29.3268 27.0947 29.3268 24.3333V7.66666C29.3268 4.90523 27.0882 2.66666 24.3268 2.66666H7.66016ZM23.9935 9.33332C24.7299 9.33332 25.3268 8.73637 25.3268 7.99999C25.3268 7.26361 24.7299 6.66666 23.9935 6.66666C23.2571 6.66666 22.6602 7.26361 22.6602 7.99999C22.6602 8.73637 23.2571 9.33332 23.9935 9.33332ZM22.6602 16C22.6602 19.6819 19.6754 22.6667 15.9935 22.6667C12.3116 22.6667 9.32682 19.6819 9.32682 16C9.32682 12.3181 12.3116 9.33332 15.9935 9.33332C19.6754 9.33332 22.6602 12.3181 22.6602 16ZM15.9935 20C18.2026 20 19.9935 18.2091 19.9935 16C19.9935 13.7909 18.2026 12 15.9935 12C13.7844 12 11.9935 13.7909 11.9935 16C11.9935 18.2091 13.7844 20 15.9935 20Z" fill="#7AB8FF"/>
</svg>
