<svg width="45" height="44" viewBox="0 0 45 44" fill="none" xmlns="http://www.w3.org/2000/svg">
<path d="M22.5 0C10.3691 0 0.5 9.86915 0.5 22C0.5 34.1309 10.3691 44 22.5 44C34.6309 44 44.5 34.1309 44.5 22C44.5 9.86915 34.6309 0 22.5 0ZM32.0251 26.5149L23.4723 35.0677C23.2145 35.3256 22.8647 35.4704 22.5001 35.4704C22.1355 35.4704 21.7857 35.3256 21.5278 35.0677L12.975 26.5148C12.4381 25.9779 12.4381 25.1072 12.975 24.5703C13.512 24.0334 14.3825 24.0333 14.9195 24.5703L21.125 30.7759V9.90447C21.125 9.14512 21.7407 8.52947 22.5 8.52947C23.2593 8.52947 23.875 9.14512 23.875 9.90447V30.7759L30.0805 24.5704C30.6176 24.0334 31.4881 24.0334 32.0251 24.5704C32.562 25.1073 32.562 25.978 32.0251 26.5149Z" fill="black"/>
</svg>
