<svg width="86" height="65" viewBox="0 0 86 65" fill="none" xmlns="http://www.w3.org/2000/svg">
<path d="M55.9004 21.1099C55.9004 21.1099 52.0842 27.9743 51.1647 29.1996C50.2452 30.4249 47.2188 30.5543 42.1297 29.943C37.0433 29.3317 34.4559 29.3758 34.4559 29.3758C34.4559 29.3758 37.0433 22.1617 47.0421 21.768C47.0421 21.768 32.9206 22.1177 31.6504 22.4674C30.3802 22.817 22.4856 29.508 22.4856 29.508H21.8726C21.8726 29.508 28.9775 23.343 32.4402 21.5064C32.4402 21.5064 44.8937 19.8461 55.9004 21.1127V21.1099Z" fill="#222227"/>
<path d="M54.2351 29.1143C54.2351 29.1143 57.1289 21.9856 59.2331 21.3302C61.3372 20.6749 73.2661 22.4674 73.2661 22.4674C73.2661 22.4674 74.5805 22.2058 77.6953 28.503C77.6953 28.503 78.3967 29.1143 76.9497 29.1143C75.5028 29.1143 61.6879 29.9458 56.1625 31.1271C56.1625 31.1271 66.1806 29.1501 71.8192 29.1143L68.8369 22.3353L64.4961 21.9856C64.4961 21.9856 66.9068 28.4149 63.9687 29.1584L62.6543 22.1618L58.8382 22.0737C58.8382 22.0737 53.7076 30.8627 54.7155 31.5181C54.7155 31.5181 53.357 31.0885 54.2323 29.1143H54.2351Z" fill="#222227"/>
<path d="M73.8203 21.1843C73.8203 21.1843 60.022 18.4061 56.4543 20.6336C56.4543 20.6336 48.6784 18.6979 34.002 20.6336C34.002 20.6336 56.5731 16.0987 73.8203 21.1843Z" fill="#222227"/>
<path d="M45.3457 31.1986L24.2961 35.1636C24.2961 35.1636 6.34472 34.5799 6.69541 33.473C7.0461 32.3661 20.7285 29.6842 20.7285 29.6842C20.7285 29.6842 42.7721 30.9673 45.3457 31.2014V31.1986Z" fill="#222227"/>
<path d="M52.4199 32.1899C52.4199 32.1899 38.7265 35.4417 28.3301 35.1636C28.3301 35.1636 49.3797 30.4992 52.4199 32.1899Z" fill="#222227"/>
<path d="M37.8623 36.2127C37.8623 36.2127 9.03682 37.4132 3.01437 35.1802C3.01437 35.1802 1.9623 38.253 4.35913 38.5449C4.35913 38.5449 3.65775 40.8633 4.24315 41.3094C4.82855 41.7527 23.5973 42.8596 24.4146 42.3364C25.232 41.8133 26.019 39.3627 26.019 39.3627L30.2604 39.247L31.6051 40.1226L36.6335 39.6573C36.6335 39.6573 38.8536 36.1797 37.8623 36.2182V36.2127Z" fill="#222227"/>
<path d="M36.3984 43.0908C36.3984 43.0908 6.81082 45.9489 0.965092 41.7499C0.965092 41.7499 0.0869904 44.3739 0.67239 49.0961C0.67239 49.0961 0.379692 45.423 1.13906 42.9752C1.13906 42.9752 1.19705 46.1224 2.36785 46.2408C3.53865 46.3592 22.3654 46.9402 24.7622 48.2811C24.7622 48.2811 27.6285 51.6624 28.6225 51.8386C29.6166 52.0148 34.9957 52.1002 34.9957 52.1002C34.9957 52.1002 29.3543 51.9845 28.5342 51.4586C27.7141 50.9327 22.6526 45.6681 23.3291 44.7814C23.3291 44.7814 34.703 44.8696 36.3984 43.0908Z" fill="#222227"/>
<path d="M36.7693 55.8339C37.722 59.5868 40.4308 62.3926 43.7168 62.8056C43.3772 62.8414 43.0347 62.858 42.6841 62.858C39.0557 62.858 35.8774 60.936 34.1184 58.0587C35.1346 58.0449 35.8746 58.0201 35.8746 58.0201L36.7693 55.8366V55.8339Z" fill="#222227"/>
<path d="M49.8495 52.8574C49.8495 49.2751 47.4803 46.3702 44.5588 46.3702C41.6374 46.3702 39.3952 49.1209 39.2737 52.5738C39.2709 52.4802 39.2681 52.3838 39.2681 52.2902C39.2681 48.394 41.8445 45.233 45.0227 45.233C48.201 45.233 50.7773 48.3913 50.7773 52.2902C50.7773 56.1891 48.201 59.3473 45.0227 59.3473C44.9454 59.3473 44.8681 59.3445 44.7908 59.339C47.6046 59.1904 49.8495 56.346 49.8495 52.8601V52.8574Z" fill="#222227"/>
<path d="M40.8173 43.0359C41.538 41.5214 42.2062 40.3705 42.6563 40.1199C44.2358 39.2443 49.3221 38.7212 50.4902 39.0709C51.6582 39.4206 53.4144 44.319 52.829 50.5556C52.829 50.5556 52.2436 40.9212 42.2449 42.4714L42.0792 42.8789L41.9411 43.2121C41.375 43.4213 40.8366 43.7077 40.3423 44.0601C40.5025 43.7049 40.6599 43.3608 40.8145 43.0331L40.8173 43.0359Z" fill="#222227"/>
<path d="M40.8887 45.7838L38.1218 52.5325C38.1218 52.4499 38.1163 52.37 38.1163 52.2874C38.1163 49.6469 39.2015 47.2954 40.8887 45.781V45.7838Z" fill="#222227"/>
<path d="M1.72823 50.4673C1.81659 50.3517 1.96846 47.1742 2.78581 46.9264C3.60316 46.6786 22.0764 48.3995 22.0764 48.3995C22.0764 48.3995 24.5285 48.807 26.0196 51.3732C27.1877 53.3778 28.5131 53.4604 32.6661 53.1768C33.7154 53.1052 34.9497 53.0115 36.4022 52.9179C36.5568 52.9069 36.7087 52.8987 36.8689 52.8876C36.8689 52.8876 36.9269 52.7224 37.0345 52.4278C37.1201 53.0308 37.2637 53.609 37.457 54.1597L36.7722 55.8338L35.8776 58.0173C35.8776 58.0173 35.1403 58.0449 34.1213 58.0559C32.1194 58.0807 29.0322 58.0559 28.3336 57.6677C27.2815 57.0839 26.9447 56.3267 26.9447 56.3267C26.9447 56.3267 11.0836 55.0436 8.86349 54.6939C8.86349 54.6939 8.51281 55.3933 8.04614 55.4511C7.57948 55.5089 3.77713 55.1014 3.19172 54.8674C2.60632 54.6333 1.25603 53.1189 0.941246 50.4646C0.941246 50.4646 1.64263 50.5802 1.73099 50.4646L1.72823 50.4673Z" fill="#222227"/>
<path d="M39.966 57.8081C38.8504 56.8967 37.9751 55.6329 37.4559 54.1598L38.1242 52.5325C38.1767 54.559 38.8642 56.4011 39.9688 57.8081H39.966Z" fill="#222227"/>
<path d="M41.9446 43.212C42.6432 42.9532 43.3888 42.8127 44.162 42.8127C46.2992 42.8127 48.2183 43.8728 49.541 45.558C48.3564 44.5915 46.9095 44.0215 45.3438 44.0215C43.6622 44.0215 42.1158 44.6796 40.887 45.781L41.8562 43.4158L41.9418 43.2092L41.9446 43.212Z" fill="#222227"/>
<path d="M40.188 44.4125C40.2404 44.2941 40.2929 44.1784 40.3426 44.0628C40.8396 43.7103 41.3753 43.4212 41.9414 43.2147L41.8558 43.4212L40.8866 45.7865C39.1994 47.3009 38.1142 49.6496 38.1142 52.2929C38.1142 52.3755 38.117 52.4554 38.1197 52.538L37.4515 54.1653C37.2582 53.6146 37.1146 53.0363 37.029 52.4333C37.4901 51.1557 38.8542 47.4413 40.1852 44.418L40.188 44.4125Z" fill="#222227"/>
<path d="M52.9489 52.5325L72.1263 48.1655L72.5957 46.4749L52.9489 51.0208V52.5325Z" fill="#222227"/>
<path d="M72.1263 46.8246L75.1527 37.3802C75.1527 37.3802 75.7215 35.8052 79.013 35.8493C79.013 35.8493 80.4599 36.3009 80.4599 38.9607C80.4599 41.6206 80.5483 44.0381 79.7586 45.2331C79.7586 45.2331 79.8469 40.4834 77.5219 39.4343H75.2852L72.129 48.1656V46.8246H72.1263Z" fill="#222227"/>
<path d="M76.0137 54.6086H71.5983C71.5983 54.6086 69.4638 51.3733 69.6985 48.1655L71.8026 48.0196L73.0314 45.1036C73.0314 45.1036 72.6228 52.5958 76.0137 54.6086Z" fill="#222227"/>
<path d="M76.9553 41.7499C75.7182 41.7499 74.7048 43.9995 74.6192 46.8521C74.6164 46.7227 74.6137 46.5905 74.6137 46.4583C74.6137 43.424 75.663 40.9624 76.9553 40.9624C78.2476 40.9624 79.2969 43.424 79.2969 46.4583C79.2969 46.5905 79.2969 46.7227 79.2914 46.8521C79.2058 44.0022 78.1923 41.7499 76.9553 41.7499Z" fill="#222227"/>
<path d="M9.55021 52.918C10.3179 55.4154 12.5214 57.4254 15.3711 58.279C14.4129 58.5653 13.3829 58.7223 12.3088 58.7223C8.03701 58.7223 4.44452 56.2552 3.42283 52.918H9.55021Z" fill="#222227"/>
<path d="M44.5213 58.0642C42.2322 58.0642 40.3765 55.7601 40.3765 52.918C40.3765 50.0758 42.2322 47.7717 44.5213 47.7717C46.8103 47.7717 48.666 50.0758 48.666 52.918C48.666 55.7601 46.8103 58.0642 44.5213 58.0642Z" fill="#222227"/>
<path d="M76.9553 52.1002C75.662 52.1002 74.6137 49.9343 74.6137 47.2624C74.6137 44.5905 75.662 42.4246 76.9553 42.4246C78.2485 42.4246 79.2969 44.5905 79.2969 47.2624C79.2969 49.9343 78.2485 52.1002 76.9553 52.1002Z" fill="#222227"/>
<path d="M78.6762 35.8464L53.9126 38.8257C53.9126 38.8257 56.5442 44.1344 54.4732 49.1594L65.9023 46.4748C65.9023 46.4748 66.4932 41.9949 65.4605 38.9606C65.4605 38.9606 67.41 42.9118 67.2526 46.048L73.3606 44.7594C73.3606 44.7594 75.7713 38.0299 76.6466 37.6747C77.522 37.3168 78.875 37.6747 78.875 37.6747L78.6762 35.8492V35.8464Z" fill="#222227"/>
<path d="M81.1435 44.7567C81.1435 44.7567 83.0544 42.4107 83.1344 41.7086C83.2145 41.0065 84.0098 33.853 83.7723 33.5005C83.5348 33.1481 81.9609 24.8381 74.613 21.187C74.613 21.187 80.7459 24.6288 82.9743 34.3651C82.9743 34.3651 82.179 35.1085 82.0189 35.8465C81.8587 36.5844 81.1435 44.7567 81.1435 44.7567Z" fill="#222227"/>
</svg>
