<svg width="32" height="33" viewBox="0 0 32 33" fill="none" xmlns="http://www.w3.org/2000/svg">
<path d="M28 25.8333V23.6388C28 22.5483 27.3361 21.5678 26.3237 21.1628L23.6115 20.0779C22.3238 19.5629 20.8563 20.1208 20.236 21.3613L20 21.8333C20 21.8333 16.6667 21.1667 14 18.5C11.3333 15.8333 10.6667 12.5 10.6667 12.5L11.1387 12.264C12.3792 11.6437 12.9371 10.1762 12.4221 8.88848L11.3372 6.17629C10.9322 5.16387 9.95166 4.5 8.86125 4.5H6.66667C5.19391 4.5 4 5.69391 4 7.16667C4 18.9487 13.5513 28.5 25.3333 28.5C26.8061 28.5 28 27.3061 28 25.8333Z" fill="#7AB8FF"/>
</svg>
