<svg width="40" height="40" viewBox="0 0 40 40" fill="none" xmlns="http://www.w3.org/2000/svg">
<path fill-rule="evenodd" clip-rule="evenodd" d="M25.7376 26.5048C28.8369 23.3279 31.6668 18.5693 31.6668 14.7621C31.6668 8.45024 26.4435 3.3335 20.0002 3.3335C13.5568 3.3335 8.3335 8.45024 8.3335 14.7621C8.3335 18.5693 11.1634 23.3279 14.2628 26.5048C16.3016 28.5947 18.457 30.0002 20.0002 30.0002C21.5433 30.0002 23.6987 28.5947 25.7376 26.5048ZM20.0002 18.3335C21.8411 18.3335 23.3335 16.8411 23.3335 15.0002C23.3335 13.1592 21.8411 11.6668 20.0002 11.6668C18.1592 11.6668 16.6668 13.1592 16.6668 15.0002C16.6668 16.8411 18.1592 18.3335 20.0002 18.3335Z" fill="#7AB8FF"/>
<path fill-rule="evenodd" clip-rule="evenodd" d="M11.759 27.4883C7.6873 28.3824 5 29.9199 5 31.6668C5 34.4282 11.7157 36.6668 20 36.6668C28.2843 36.6668 35 34.4282 35 31.6668C35 29.9199 32.3127 28.3824 28.241 27.4883C28.0051 27.7502 27.7668 28.0045 27.5269 28.2504C26.4064 29.399 25.2024 30.4143 24.0016 31.1599C22.8569 31.8707 21.455 32.5 20 32.5C18.545 32.5 17.1431 31.8707 15.9984 31.1599C14.7976 30.4143 13.5936 29.399 12.4731 28.2504C12.2332 28.0045 11.9949 27.7502 11.759 27.4883Z" fill="#7AB8FF"/>
</svg>
