<svg width="24" height="24" viewBox="0 0 24 24" fill="none" xmlns="http://www.w3.org/2000/svg">
<path d="M13.3768 11.9943L23.7153 1.65183C23.8977 1.46865 24 1.22069 23.9998 0.96227C23.9996 0.703848 23.897 0.456027 23.7143 0.273087C23.3488 -0.0904172 22.7049 -0.0922528 22.3357 0.274923L12 10.6174L1.66064 0.272169C1.29325 -0.0904172 0.64939 -0.0885814 0.283833 0.274005C0.193098 0.364324 0.121271 0.4718 0.0725426 0.59016C0.0238144 0.70852 -0.000838692 0.835394 2.17718e-05 0.963378C2.17718e-05 1.22407 0.101055 1.46824 0.283833 1.64908L10.6223 11.9933L0.284752 22.3385C0.102327 22.522 0.00016785 22.7703 0.000684416 23.0289C0.00120098 23.2876 0.104352 23.5354 0.287507 23.7182C0.464775 23.8935 0.71552 23.9945 0.974533 23.9945H0.980044C1.23997 23.9936 1.49072 23.8917 1.66431 23.7145L12 13.3721L22.3394 23.7173C22.5222 23.899 22.7665 24 23.0255 24C23.1536 24.0004 23.2804 23.9754 23.3988 23.9266C23.5172 23.8778 23.6248 23.8061 23.7154 23.7155C23.8059 23.625 23.8777 23.5175 23.9266 23.3992C23.9754 23.2809 24.0004 23.1541 24 23.0261C24 22.7663 23.899 22.5212 23.7153 22.3404L13.3768 11.9943Z" fill="black"/>
</svg>
