<svg width="40" height="40" viewBox="0 0 40 40" fill="none" xmlns="http://www.w3.org/2000/svg">
<g clip-path="url(#clip0_533_3564)">
<path d="M28.6591 22.3367C29.1473 22.8248 29.1473 23.6163 28.6591 24.1045L20.8839 31.8798C20.6495 32.1141 20.3316 32.2459 20.0001 32.2459C19.6686 32.2459 19.3506 32.1141 19.1162 31.8797L11.3409 24.1044C10.8528 23.6163 10.8528 22.8248 11.3409 22.3366C11.8291 21.8485 12.6205 21.8484 13.1087 22.3366L18.75 27.978V9.00406C18.75 8.31375 19.3097 7.75406 20 7.75406C20.6903 7.75406 21.25 8.31375 21.25 9.00406V27.9781L26.8914 22.3367C27.3795 21.8485 28.171 21.8485 28.6591 22.3367ZM40 20C40 31.028 31.028 40 20 40C8.97195 40 0 31.028 0 20C0 8.97195 8.97195 0 20 0C31.028 0 40 8.97195 40 20ZM37.5 20C37.5 10.3505 29.6495 2.5 20 2.5C10.3505 2.5 2.5 10.3505 2.5 20C2.5 29.6495 10.3505 37.5 20 37.5C29.6495 37.5 37.5 29.6495 37.5 20Z"
fill="#7AB8FF"
/>
</g>
<defs>
<clipPath id="clip0_533_3564">
<rect width="40" height="40" fill="white"/>
</clipPath>
</defs>
</svg>
