<svg width="92" height="70" viewBox="0 0 92 70" fill="none" xmlns="http://www.w3.org/2000/svg">
<circle cx="57.0005" cy="35" r="35" fill="black"/>
<path d="M55.9009 26.1103C55.9009 26.1103 52.0847 32.9747 51.1652 34.1999C50.2457 35.4252 47.2193 35.5547 42.1301 34.9434C37.0438 34.3321 34.4564 34.3762 34.4564 34.3762C34.4564 34.3762 37.0438 27.1621 47.0425 26.7683C47.0425 26.7683 32.9211 27.118 31.6509 27.4677C30.3807 27.8174 22.4861 34.5083 22.4861 34.5083H21.8731C21.8731 34.5083 28.9779 28.3433 32.4406 26.5068C32.4406 26.5068 44.8942 24.8464 55.9009 26.113V26.1103Z" fill="#7AB8FF"/>
<path d="M54.2355 34.1147C54.2355 34.1147 57.1294 26.9859 59.2335 26.3306C61.3377 25.6753 73.2666 27.4678 73.2666 27.4678C73.2666 27.4678 74.581 27.2062 77.6958 33.5034C77.6958 33.5034 78.3972 34.1147 76.9502 34.1147C75.5033 34.1147 61.6884 34.9462 56.1629 36.1274C56.1629 36.1274 66.181 34.1505 71.8197 34.1147L68.8374 27.3356L64.4966 26.9859C64.4966 26.9859 66.9073 33.4153 63.9692 34.1587L62.6548 27.1622L58.8387 27.074C58.8387 27.074 53.7081 35.8631 54.716 36.5184C54.716 36.5184 53.3574 36.0889 54.2328 34.1147H54.2355Z" fill="#7AB8FF"/>
<path d="M73.8208 26.1839C73.8208 26.1839 60.0225 23.4057 56.4548 25.6333C56.4548 25.6333 48.6789 23.6976 34.0025 25.6333C34.0025 25.6333 56.5736 21.0983 73.8208 26.1839Z" fill="#7AB8FF"/>
<path d="M45.3462 36.199L24.2966 40.164C24.2966 40.164 6.34521 39.5802 6.6959 38.4733C7.04659 37.3664 20.729 34.6846 20.729 34.6846C20.729 34.6846 42.7726 35.9677 45.3462 36.2017V36.199Z" fill="#7AB8FF"/>
<path d="M52.4204 37.1895C52.4204 37.1895 38.727 40.4413 28.3306 40.1632C28.3306 40.1632 49.3802 35.4989 52.4204 37.1895Z" fill="#7AB8FF"/>
<path d="M37.8628 41.2122C37.8628 41.2122 9.03731 42.4127 3.01485 40.1797C3.01485 40.1797 1.96279 43.2526 4.35962 43.5444C4.35962 43.5444 3.65824 45.8628 4.24364 46.3089C4.82904 46.7522 23.5978 47.8591 24.4151 47.3359C25.2325 46.8128 26.0195 44.3622 26.0195 44.3622L30.2609 44.2466L31.6056 45.1222L36.634 44.6568C36.634 44.6568 38.8541 41.1792 37.8628 41.2177V41.2122Z" fill="#7AB8FF"/>
<path d="M36.3989 48.0909C36.3989 48.0909 6.81131 50.949 0.96558 46.75C0.96558 46.75 0.0874786 49.3741 0.672878 54.0962C0.672878 54.0962 0.38018 50.4231 1.13955 47.9753C1.13955 47.9753 1.19754 51.1225 2.36834 51.2409C3.53914 51.3593 22.3659 51.9403 24.7627 53.2812C24.7627 53.2812 27.629 56.6625 28.623 56.8387C29.6171 57.0149 34.9962 57.1003 34.9962 57.1003C34.9962 57.1003 29.3548 56.9846 28.5347 56.4587C27.7146 55.9328 22.653 50.6682 23.3296 49.7816C23.3296 49.7816 34.7035 49.8697 36.3989 48.0909Z" fill="#7AB8FF"/>
<path d="M36.7698 60.834C37.7224 64.587 40.4313 67.3927 43.7173 67.8058C43.3776 67.8416 43.0352 67.8581 42.6845 67.8581C39.0562 67.8581 35.8779 65.9362 34.1189 63.0588C35.1351 63.045 35.8751 63.0202 35.8751 63.0202L36.7698 60.8367V60.834Z" fill="#7AB8FF"/>
<path d="M49.85 57.8577C49.85 54.2755 47.4808 51.3706 44.5593 51.3706C41.6378 51.3706 39.3956 54.1213 39.2741 57.5741C39.2714 57.4805 39.2686 57.3841 39.2686 57.2905C39.2686 53.3944 41.8449 50.2334 45.0232 50.2334C48.2015 50.2334 50.7778 53.3916 50.7778 57.2905C50.7778 61.1894 48.2015 64.3477 45.0232 64.3477C44.9459 64.3477 44.8686 64.3449 44.7913 64.3394C47.6051 64.1907 49.85 61.3464 49.85 57.8605V57.8577Z" fill="#7AB8FF"/>
<path d="M40.8177 48.0356C41.5384 46.5212 42.2067 45.3703 42.6568 45.1197C44.2363 44.2441 49.3226 43.7209 50.4907 44.0706C51.6587 44.4203 53.4149 49.3187 52.8295 55.5553C52.8295 55.5553 52.2441 45.9209 42.2453 47.4712L42.0797 47.8787L41.9416 48.2118C41.3755 48.4211 40.8371 48.7075 40.3428 49.0599C40.503 48.7047 40.6603 48.3605 40.815 48.0329L40.8177 48.0356Z" fill="#7AB8FF"/>
<path d="M40.8892 50.784L38.1223 57.5327C38.1223 57.4501 38.1168 57.3703 38.1168 57.2877C38.1168 54.6471 39.202 52.2957 40.8892 50.7812V50.784Z" fill="#7AB8FF"/>
<path d="M1.72871 55.4677C1.81707 55.3521 1.96894 52.1746 2.7863 51.9268C3.60365 51.6789 22.0769 53.3999 22.0769 53.3999C22.0769 53.3999 24.529 53.8074 26.0201 56.3736C27.1881 58.3781 28.5136 58.4607 32.6666 58.1771C33.7159 58.1055 34.9502 58.0119 36.4027 57.9183C36.5573 57.9073 36.7092 57.899 36.8694 57.888C36.8694 57.888 36.9273 57.7228 37.035 57.4282C37.1206 58.0312 37.2642 58.6094 37.4575 59.1601L36.7727 60.8342L35.878 63.0177C35.878 63.0177 35.1408 63.0452 34.1218 63.0563C32.1199 63.081 29.0327 63.0563 28.3341 62.668C27.282 62.0843 26.9451 61.3271 26.9451 61.3271C26.9451 61.3271 11.0841 60.044 8.86398 59.6943C8.86398 59.6943 8.51329 60.3937 8.04663 60.4515C7.57997 60.5093 3.77761 60.1018 3.19221 59.8677C2.60681 59.6337 1.25652 58.1193 0.941734 55.465C0.941734 55.465 1.64312 55.5806 1.73148 55.465L1.72871 55.4677Z" fill="#7AB8FF"/>
<path d="M39.9665 62.8079C38.8509 61.8965 37.9756 60.6326 37.4564 59.1595L38.1247 57.5322C38.1771 59.5588 38.8647 61.4008 39.9692 62.8079H39.9665Z" fill="#7AB8FF"/>
<path d="M41.9451 48.2118C42.6437 47.9529 43.3893 47.8125 44.1624 47.8125C46.2997 47.8125 48.2188 48.8726 49.5415 50.5577C48.3569 49.5912 46.91 49.0213 45.3443 49.0213C43.6626 49.0213 42.1163 49.6793 40.8875 50.7807L41.8567 48.4155L41.9423 48.209L41.9451 48.2118Z" fill="#7AB8FF"/>
<path d="M40.1885 49.4126C40.2409 49.2942 40.2934 49.1786 40.3431 49.0629C40.8401 48.7105 41.3758 48.4214 41.9419 48.2148L41.8563 48.4214L40.8871 50.7866C39.1999 52.301 38.1147 54.6497 38.1147 57.293C38.1147 57.3756 38.1175 57.4555 38.1202 57.5381L37.452 59.1654C37.2587 58.6147 37.1151 58.0365 37.0295 57.4334C37.4906 56.1558 38.8547 52.4414 40.1857 49.4181L40.1885 49.4126Z" fill="#7AB8FF"/>
<path d="M52.9494 57.5322L72.1268 53.1652L72.5962 51.4746L52.9494 56.0206V57.5322Z" fill="#7AB8FF"/>
<path d="M72.1267 51.8249L75.1532 42.3805C75.1532 42.3805 75.722 40.8055 79.0135 40.8495C79.0135 40.8495 80.4604 41.3011 80.4604 43.961C80.4604 46.6208 80.5488 49.0384 79.759 50.2334C79.759 50.2334 79.8474 45.4836 77.5224 44.4346H75.2857L72.1295 53.1658V51.8249H72.1267Z" fill="#7AB8FF"/>
<path d="M76.0142 59.6085H71.5988C71.5988 59.6085 69.4643 56.3732 69.699 53.1654L71.8031 53.0194L73.0319 50.1035C73.0319 50.1035 72.6233 57.5957 76.0142 59.6085Z" fill="#7AB8FF"/>
<path d="M76.9558 46.7504C75.7187 46.7504 74.7053 49 74.6197 51.8526C74.6169 51.7231 74.6142 51.591 74.6142 51.4588C74.6142 48.4245 75.6635 45.9629 76.9558 45.9629C78.2481 45.9629 79.2974 48.4245 79.2974 51.4588C79.2974 51.591 79.2974 51.7231 79.2918 51.8526C79.2062 49.0027 78.1928 46.7504 76.9558 46.7504Z" fill="#7AB8FF"/>
<path d="M9.5507 57.918C10.3183 60.4154 12.5219 62.4254 15.3716 63.279C14.4134 63.5653 13.3834 63.7223 12.3093 63.7223C8.0375 63.7223 4.44501 61.2552 3.42332 57.918H9.5507Z" fill="#7AB8FF"/>
<path d="M44.5218 63.0639C42.2327 63.0639 40.377 60.7599 40.377 57.9177C40.377 55.0755 42.2327 52.7715 44.5218 52.7715C46.8108 52.7715 48.6665 55.0755 48.6665 57.9177C48.6665 60.7599 46.8108 63.0639 44.5218 63.0639Z" fill="#7AB8FF"/>
<path d="M76.9558 57.1005C75.6625 57.1005 74.6142 54.9345 74.6142 52.2626C74.6142 49.5908 75.6625 47.4248 76.9558 47.4248C78.249 47.4248 79.2974 49.5908 79.2974 52.2626C79.2974 54.9345 78.249 57.1005 76.9558 57.1005Z" fill="#7AB8FF"/>
<path d="M78.6767 40.8467L53.9131 43.8259C53.9131 43.8259 56.5446 49.1346 54.4736 54.1597L65.9028 51.4751C65.9028 51.4751 66.4937 46.9952 65.461 43.9608C65.461 43.9608 67.4105 47.9121 67.2531 51.0483L73.3611 49.7597C73.3611 49.7597 75.7718 43.0302 76.6471 42.675C77.5224 42.317 78.8755 42.675 78.8755 42.675L78.6767 40.8494V40.8467Z" fill="#7AB8FF"/>
<path d="M81.144 49.7572C81.144 49.7572 83.0549 47.4112 83.1349 46.7091C83.215 46.007 84.0103 38.8534 83.7728 38.501C83.5353 38.1486 81.9614 29.8386 74.6135 26.1875C74.6135 26.1875 80.7464 29.6293 82.9748 39.3656C82.9748 39.3656 82.1795 40.109 82.0194 40.847C81.8592 41.5849 81.144 49.7572 81.144 49.7572Z" fill="#7AB8FF"/>
</svg>
