<svg width="40" height="40" viewBox="0 0 40 40" fill="none" xmlns="http://www.w3.org/2000/svg">
<g clip-path="url(#clip0_935_508)">
<path d="M20 0C8.97203 0 0 8.97195 0 20C0 31.028 8.97195 40 20 40C31.028 40 40 31.028 40 20C40 8.97195 31.028 0 20 0ZM28.6591 17.6631C28.171 18.1513 27.3796 18.1513 26.8914 17.6631L21.25 12.0217V30.9959C21.25 31.6862 20.6903 32.2459 20 32.2459C19.3097 32.2459 18.75 31.6862 18.75 30.9959V12.0219L13.1086 17.6633C12.8645 17.9073 12.5446 18.0294 12.2247 18.0294C11.9048 18.0294 11.5849 17.9073 11.3409 17.6633C10.8527 17.1751 10.8527 16.3837 11.3409 15.8955L19.1162 8.12023C19.6043 7.63203 20.3957 7.63203 20.8839 8.12023L28.6591 15.8955C29.1473 16.3835 29.1473 17.175 28.6591 17.6631Z" fill="#E3EAF1"/>
</g>
<defs>
<clipPath id="clip0_935_508">
<rect width="40" height="40" fill="white"/>
</clipPath>
</defs>
</svg>
