<svg width="32" height="33" viewBox="0 0 32 33" fill="none" xmlns="http://www.w3.org/2000/svg">
<path fill-rule="evenodd" clip-rule="evenodd" d="M13.12 7.25004C12.6408 8.45789 12.2507 9.92507 11.9872 11.5722C13.2624 11.4554 14.6097 11.3932 15.9999 11.3932C17.3901 11.3932 18.7374 11.4554 20.0126 11.5722C19.749 9.92507 19.3589 8.45789 18.8797 7.25004C18.4191 6.0891 17.896 5.21814 17.3669 4.65413C16.8398 4.09226 16.3775 3.90355 15.9999 3.90355C15.6222 3.90355 15.1599 4.09226 14.6328 4.65413C14.1038 5.21814 13.5806 6.0891 13.12 7.25004ZM11.2388 6.49142C10.6409 7.99852 10.1821 9.814 9.90084 11.821C8.51657 12.0268 7.25331 12.3015 6.15766 12.6328C4.88282 13.0184 3.77734 13.4978 2.96796 14.0766C2.8657 14.1497 2.76477 14.227 2.66657 14.3085C3.55996 8.74115 7.80136 4.3048 13.241 3.16667C13.2141 3.19435 13.1873 3.22234 13.1608 3.25061C12.3971 4.06477 11.756 5.18806 11.2388 6.49142ZM18.7587 3.16667C18.7857 3.19435 18.8124 3.22234 18.839 3.25061C19.6027 4.06477 20.2438 5.18806 20.7609 6.49142C21.3589 7.99852 21.8177 9.814 22.0989 11.821C23.4832 12.0268 24.7464 12.3015 25.8421 12.6328C27.1169 13.0184 28.2224 13.4978 29.0318 14.0766C29.134 14.1497 29.235 14.227 29.3332 14.3085C28.4398 8.74115 24.1984 4.30479 18.7587 3.16667ZM29.3332 18.6911C29.235 18.7726 29.1341 18.8499 29.0318 18.923C28.2224 19.5018 27.1169 19.9812 25.8421 20.3668C24.7464 20.6982 23.4832 20.9728 22.0989 21.1786C21.8177 23.1856 21.3589 25.0011 20.7609 26.5082C20.2438 27.8116 19.6027 28.9349 18.839 29.749C18.8123 29.7774 18.7854 29.8056 18.7583 29.8334C24.1983 28.6954 28.4399 24.2588 29.3332 18.6911ZM13.2414 29.8334C13.2143 29.8056 13.1874 29.7774 13.1608 29.749C12.3971 28.9349 11.756 27.8116 11.2388 26.5082C10.6409 25.0011 10.1821 23.1856 9.90084 21.1786C8.51657 20.9728 7.25331 20.6982 6.15766 20.3668C4.88282 19.9812 3.77734 19.5018 2.96796 18.923C2.86568 18.8499 2.76473 18.7726 2.6665 18.6911C3.55979 24.2588 7.80144 28.6954 13.2414 29.8334ZM6.73986 18.4103C7.59917 18.6702 8.58787 18.8955 9.6776 19.0763C9.61592 18.2387 9.5839 17.3775 9.5839 16.4998C9.5839 15.6221 9.61592 14.7609 9.67761 13.9234C8.58787 14.1041 7.59917 14.3294 6.73986 14.5893C5.57037 14.943 4.69775 15.3439 4.14012 15.7427C3.55617 16.1603 3.50561 16.4309 3.50561 16.4998C3.50561 16.5687 3.55617 16.8394 4.14012 17.2569C4.69775 17.6557 5.57037 18.0566 6.73986 18.4103ZM11.61 16.4998C11.61 17.4819 11.6525 18.4357 11.7323 19.3505C13.0642 19.4882 14.4997 19.5638 15.9999 19.5638C17.5001 19.5638 18.9355 19.4882 20.2674 19.3505C20.3473 18.4357 20.3897 17.4819 20.3897 16.4998C20.3897 15.5177 20.3473 14.5639 20.2674 13.6492C18.9355 13.5115 17.5001 13.4359 15.9999 13.4359C14.4997 13.4359 13.0642 13.5115 11.7323 13.6492C11.6525 14.5639 11.61 15.5177 11.61 16.4998ZM13.12 25.7496C12.6408 24.5417 12.2507 23.0746 11.9872 21.4274C13.2624 21.5442 14.6097 21.6064 15.9999 21.6064C17.3901 21.6064 18.7374 21.5442 20.0126 21.4274C19.749 23.0746 19.3589 24.5417 18.8797 25.7496C18.4191 26.9105 17.896 27.7815 17.3669 28.3455C16.8398 28.9074 16.3775 29.0961 15.9999 29.0961C15.6222 29.0961 15.1599 28.9074 14.6328 28.3455C14.1038 27.7815 13.5806 26.9105 13.12 25.7496ZM25.2599 18.4103C24.4006 18.6702 23.4119 18.8955 22.3221 19.0763C22.3838 18.2387 22.4158 17.3775 22.4158 16.4998C22.4158 15.6221 22.3838 14.7609 22.3221 13.9234C23.4119 14.1041 24.4006 14.3294 25.2599 14.5893C26.4294 14.9431 27.302 15.3439 27.8596 15.7427C28.4436 16.1603 28.4941 16.4309 28.4941 16.4998C28.4941 16.5687 28.4436 16.8394 27.8596 17.2569C27.302 17.6557 26.4294 18.0566 25.2599 18.4103Z" fill="#E3EAF1"/>
</svg>
