<svg width="112" height="69" viewBox="0 0 112 69" fill="none" xmlns="http://www.w3.org/2000/svg">
<ellipse cx="65.1166" cy="23.8462" rx="22.7904" ry="23.1538" fill="black"/>
<path d="M64.3999 17.965C64.3999 17.965 61.915 22.5061 61.3162 23.3167C60.7175 24.1273 58.7468 24.2129 55.433 23.8085C52.121 23.4041 50.4362 23.4333 50.4362 23.4333C50.4362 23.4333 52.121 18.6609 58.6317 18.4004C58.6317 18.4004 49.4365 18.6317 48.6094 18.8631C47.7823 19.0944 42.6417 23.5207 42.6417 23.5207H42.2425C42.2425 23.5207 46.8689 19.4423 49.1236 18.2273C49.1236 18.2273 57.2329 17.129 64.3999 17.9669V17.965Z" fill="#7AB8FF"/>
<path d="M63.3157 23.2602C63.3157 23.2602 65.2001 18.5443 66.5702 18.1108C67.9403 17.6772 75.7079 18.863 75.7079 18.863C75.7079 18.863 76.5638 18.69 78.592 22.8558C78.592 22.8558 79.0487 23.2602 78.1065 23.2602C77.1643 23.2602 68.1687 23.8103 64.5708 24.5917C64.5708 24.5917 71.0941 23.2839 74.7657 23.2602L72.8238 18.7756L69.9973 18.5443C69.9973 18.5443 71.567 22.7975 69.6539 23.2894L68.798 18.6609L66.3131 18.6026C66.3131 18.6026 62.9723 24.4169 63.6286 24.8504C63.6286 24.8504 62.7439 24.5662 63.3139 23.2602H63.3157Z" fill="#7AB8FF"/>
<path d="M76.0693 18.0142C76.0693 18.0142 67.0845 16.1763 64.7614 17.6499C64.7614 17.6499 59.6981 16.3694 50.1414 17.6499C50.1414 17.6499 64.8387 14.6499 76.0693 18.0142Z" fill="#7AB8FF"/>
<path d="M57.5278 24.6391L43.8213 27.2621C43.8213 27.2621 32.1321 26.8759 32.3605 26.1437C32.5888 25.4114 41.4982 23.6373 41.4982 23.6373C41.4982 23.6373 55.852 24.4861 57.5278 24.6409V24.6391Z" fill="#7AB8FF"/>
<path d="M62.1348 25.2949C62.1348 25.2949 53.2182 27.4461 46.4486 27.2621C46.4486 27.2621 60.1551 24.1764 62.1348 25.2949Z" fill="#7AB8FF"/>
<path d="M52.6553 27.9561C52.6553 27.9561 33.8855 28.7503 29.9639 27.273C29.9639 27.273 29.2788 29.3058 30.8396 29.4989C30.8396 29.4989 30.3828 31.0327 30.764 31.3277C31.1452 31.621 43.3666 32.3533 43.8988 32.0072C44.431 31.6611 44.9435 30.0399 44.9435 30.0399L47.7053 29.9634L48.5809 30.5427L51.8552 30.2348C51.8552 30.2348 53.3008 27.9342 52.6553 27.9597V27.9561Z" fill="#7AB8FF"/>
<path d="M51.7021 32.5063C51.7021 32.5063 32.436 34.397 28.6295 31.6192C28.6295 31.6192 28.0578 33.3551 28.4389 36.479C28.4389 36.479 28.2483 34.0491 28.7428 32.4298C28.7428 32.4298 28.7806 34.5118 29.5429 34.5901C30.3053 34.6684 42.5644 35.0528 44.1252 35.9398C44.1252 35.9398 45.9915 38.1767 46.6388 38.2932C47.2861 38.4098 50.7887 38.4663 50.7887 38.4663C50.7887 38.4663 47.1153 38.3898 46.5813 38.0419C46.0473 37.694 42.7514 34.2112 43.192 33.6247C43.192 33.6247 50.5981 33.683 51.7021 32.5063Z" fill="#7AB8FF"/>
<path d="M51.9434 40.9363C52.5637 43.419 54.3276 45.2751 56.4673 45.5484C56.2461 45.5721 56.0232 45.583 55.7948 45.583C53.4322 45.583 51.3626 44.3116 50.2173 42.4081C50.8789 42.399 51.3608 42.3826 51.3608 42.3826L51.9434 40.9381V40.9363Z" fill="#7AB8FF"/>
<path d="M60.4608 38.9672C60.4608 36.5974 58.9181 34.6757 57.0157 34.6757C55.1134 34.6757 53.6534 36.4954 53.5743 38.7796C53.5725 38.7177 53.5707 38.6539 53.5707 38.592C53.5707 36.0145 55.2482 33.9234 57.3178 33.9234C59.3874 33.9234 61.0649 36.0127 61.0649 38.592C61.0649 41.1713 59.3874 43.2605 57.3178 43.2605C57.2675 43.2605 57.2171 43.2587 57.1668 43.2551C58.999 43.1567 60.4608 41.2751 60.4608 38.969V38.9672Z" fill="#7AB8FF"/>
<path d="M54.5793 32.4698C55.0486 31.468 55.4837 30.7066 55.7768 30.5408C56.8053 29.9616 60.1173 29.6155 60.8779 29.8468C61.6385 30.0782 62.782 33.3187 62.4008 37.4444C62.4008 37.4444 62.0197 31.0709 55.5089 32.0964L55.401 32.366L55.3111 32.5864C54.9425 32.7248 54.5919 32.9143 54.27 33.1474C54.3743 32.9125 54.4768 32.6848 54.5775 32.468L54.5793 32.4698Z" fill="#7AB8FF"/>
<path d="M54.626 34.2877L52.8243 38.7523C52.8243 38.6976 52.8207 38.6448 52.8207 38.5901C52.8207 36.8433 53.5274 35.2877 54.626 34.2859V34.2877Z" fill="#7AB8FF"/>
<path d="M29.1261 37.3861C29.1836 37.3096 29.2825 35.2076 29.8148 35.0436C30.347 34.8797 42.376 36.0182 42.376 36.0182C42.376 36.0182 43.9726 36.2877 44.9436 37.9854C45.7042 39.3115 46.5672 39.3661 49.2715 39.1785C49.9548 39.1311 50.7585 39.0692 51.7043 39.0073C51.8049 39 51.9038 38.9945 52.0081 38.9872C52.0081 38.9872 52.0459 38.878 52.116 38.6831C52.1718 39.082 52.2652 39.4645 52.3911 39.8288L51.9452 40.9363L51.3626 42.3807C51.3626 42.3807 50.8825 42.399 50.2191 42.4062C48.9155 42.4226 46.9053 42.4062 46.4503 42.1494C45.7653 41.7632 45.5459 41.2623 45.5459 41.2623C45.5459 41.2623 35.2179 40.4135 33.7723 40.1822C33.7723 40.1822 33.5439 40.6448 33.2401 40.6831C32.9362 40.7213 30.4603 40.4518 30.0791 40.2969C29.6979 40.1421 28.8186 39.1403 28.6137 37.3843C28.6137 37.3843 29.0704 37.4608 29.1279 37.3843L29.1261 37.3861Z" fill="#7AB8FF"/>
<path d="M54.0255 42.2423C53.2991 41.6394 52.7292 40.8033 52.3911 39.8288L52.8262 38.7523C52.8604 40.0929 53.3081 41.3115 54.0273 42.2423H54.0255Z" fill="#7AB8FF"/>
<path d="M55.3128 32.5864C55.7677 32.4152 56.2532 32.3223 56.7567 32.3223C58.1484 32.3223 59.398 33.0236 60.2593 34.1384C59.4879 33.499 58.5457 33.1219 57.5262 33.1219C56.4312 33.1219 55.4243 33.5573 54.6242 34.2859L55.2553 32.7212L55.311 32.5846L55.3128 32.5864Z" fill="#7AB8FF"/>
<path d="M54.1693 33.3806C54.2034 33.3023 54.2376 33.2258 54.27 33.1493C54.5936 32.9161 54.9424 32.7248 55.311 32.5882L55.2553 32.7248L54.6242 34.2895C53.5256 35.2914 52.8189 36.8451 52.8189 38.5938C52.8189 38.6484 52.8207 38.7013 52.8225 38.7559L52.3874 39.8324C52.2615 39.4681 52.168 39.0856 52.1123 38.6867C52.4126 37.8415 53.3008 35.3843 54.1675 33.3842L54.1693 33.3806Z" fill="#7AB8FF"/>
<path d="M62.4778 38.7523L74.9653 35.8633L75.271 34.7449L62.4778 37.7523V38.7523Z" fill="#7AB8FF"/>
<path d="M74.9656 34.9763L76.9363 28.7284C76.9363 28.7284 77.3067 27.6865 79.4499 27.7157C79.4499 27.7157 80.3921 28.0144 80.3921 29.774C80.3921 31.5336 80.4497 33.1329 79.9354 33.9234C79.9354 33.9234 79.993 30.7813 78.479 30.0873H77.0226L74.9674 35.8633V34.9763H74.9656Z" fill="#7AB8FF"/>
<path d="M77.4971 40.1257H74.622C74.622 40.1257 73.2321 37.9854 73.3849 35.8633L74.755 35.7668L75.5552 33.8378C75.5552 33.8378 75.2891 38.7942 77.4971 40.1257Z" fill="#7AB8FF"/>
<path d="M78.11 31.6192C77.3045 31.6192 76.6446 33.1074 76.5889 34.9945C76.5871 34.9089 76.5853 34.8214 76.5853 34.734C76.5853 32.7267 77.2685 31.0982 78.11 31.0982C78.9515 31.0982 79.6348 32.7267 79.6348 34.734C79.6348 34.8214 79.6348 34.9089 79.6312 34.9945C79.5754 33.1092 78.9155 31.6192 78.11 31.6192Z" fill="#7AB8FF"/>
<path d="M34.22 39.0073C34.7198 40.6594 36.1547 41.9891 38.0103 42.5538C37.3863 42.7432 36.7157 42.8471 36.0162 42.8471C33.2346 42.8471 30.8954 41.215 30.2301 39.0073H34.22Z" fill="#7AB8FF"/>
<path d="M56.9901 42.4117C55.4995 42.4117 54.2912 40.8875 54.2912 39.0073C54.2912 37.1271 55.4995 35.6029 56.9901 35.6029C58.4806 35.6029 59.689 37.1271 59.689 39.0073C59.689 40.8875 58.4806 42.4117 56.9901 42.4117Z" fill="#7AB8FF"/>
<path d="M78.11 38.4663C77.2679 38.4663 76.5853 37.0334 76.5853 35.2659C76.5853 33.4983 77.2679 32.0655 78.11 32.0655C78.9521 32.0655 79.6348 33.4983 79.6348 35.2659C79.6348 37.0334 78.9521 38.4663 78.11 38.4663Z" fill="#7AB8FF"/>
<path d="M79.2304 27.7138L63.1055 29.6847C63.1055 29.6847 64.819 33.1966 63.4705 36.5209L70.9126 34.7449C70.9126 34.7449 71.2974 31.7813 70.6249 29.774C70.6249 29.774 71.8943 32.3879 71.7919 34.4626L75.7692 33.6101C75.7692 33.6101 77.3389 29.1583 77.9088 28.9233C78.4788 28.6865 79.3599 28.9233 79.3599 28.9233L79.2304 27.7157V27.7138Z" fill="#7AB8FF"/>
<path d="M80.8377 33.6083C80.8377 33.6083 82.0819 32.0563 82.1341 31.5919C82.1862 31.1274 82.704 26.3951 82.5494 26.1619C82.3948 25.9287 81.3699 20.4314 76.5853 18.016C76.5853 18.016 80.5787 20.2929 82.0298 26.7339C82.0298 26.7339 81.5119 27.2257 81.4076 27.7138C81.3034 28.202 80.8377 33.6083 80.8377 33.6083Z" fill="#7AB8FF"/>
<path d="M5.868 52.598H8.244V65H5.868V52.598ZM0.288 51.5H13.824V53.588H0.288V51.5ZM21.9441 65.252C20.4081 65.252 19.0581 64.958 17.8941 64.37C16.7301 63.782 15.8241 62.966 15.1761 61.922C14.5281 60.866 14.2041 59.642 14.2041 58.25C14.2041 56.858 14.5281 55.64 15.1761 54.596C15.8241 53.54 16.7301 52.718 17.8941 52.13C19.0581 51.542 20.4081 51.248 21.9441 51.248C23.4801 51.248 24.8301 51.542 25.9941 52.13C27.1581 52.718 28.0641 53.54 28.7121 54.596C29.3601 55.64 29.6841 56.858 29.6841 58.25C29.6841 59.642 29.3601 60.866 28.7121 61.922C28.0641 62.966 27.1581 63.782 25.9941 64.37C24.8301 64.958 23.4801 65.252 21.9441 65.252ZM21.9441 63.128C23.0361 63.128 23.9781 62.93 24.7701 62.534C25.5621 62.138 26.1741 61.574 26.6061 60.842C27.0501 60.11 27.2721 59.246 27.2721 58.25C27.2721 57.254 27.0501 56.39 26.6061 55.658C26.1741 54.926 25.5621 54.362 24.7701 53.966C23.9781 53.57 23.0361 53.372 21.9441 53.372C20.8641 53.372 19.9221 53.57 19.1181 53.966C18.3261 54.362 17.7081 54.926 17.2641 55.658C16.8321 56.39 16.6161 57.254 16.6161 58.25C16.6161 59.246 16.8321 60.11 17.2641 60.842C17.7081 61.574 18.3261 62.138 19.1181 62.534C19.9221 62.93 20.8641 63.128 21.9441 63.128ZM39.1385 51.5C40.1465 51.5 41.0165 51.68 41.7485 52.04C42.4925 52.4 43.0625 52.904 43.4585 53.552C43.8665 54.188 44.0705 54.926 44.0705 55.766C44.0705 56.606 43.8665 57.35 43.4585 57.998C43.0625 58.634 42.4925 59.132 41.7485 59.492C41.0165 59.852 40.1465 60.032 39.1385 60.032H33.0725V57.98H39.0485C39.8645 57.98 40.5005 57.782 40.9565 57.386C41.4245 56.99 41.6585 56.45 41.6585 55.766C41.6585 55.082 41.4245 54.542 40.9565 54.146C40.5005 53.75 39.8645 53.552 39.0485 53.552H33.3065L34.3685 52.364V65H31.9925V51.5H39.1385ZM52.6364 63.992H51.5204L57.3344 51.5H59.8724L53.3564 65H50.7104L44.1944 51.5H46.7504L52.6364 63.992ZM62.9634 68.222C62.3634 68.222 61.8174 68.144 61.3254 67.988C60.8454 67.844 60.3954 67.64 59.9754 67.376V65.594C60.4314 65.882 60.8634 66.092 61.2714 66.224C61.6914 66.356 62.1594 66.422 62.6754 66.422C63.1674 66.422 63.6054 66.308 63.9894 66.08C64.3734 65.864 64.6914 65.48 64.9434 64.928L69.5334 54.812H72.0174L66.7434 65.72C66.4554 66.32 66.1134 66.8 65.7174 67.16C65.3334 67.532 64.9074 67.802 64.4394 67.97C63.9834 68.138 63.4914 68.222 62.9634 68.222ZM64.1334 64.676L59.4534 54.812H62.0274L66.4554 64.676H64.1334ZM75.7226 62.966L75.0386 62.714L81.5186 54.812H84.2186L75.5606 65H73.3826V51.14H75.7226V62.966ZM78.6206 59.96L80.2586 58.484L84.5246 65H81.7706L78.6206 59.96ZM89.9709 65.252C89.0349 65.252 88.2369 65.06 87.5769 64.676C86.9289 64.292 86.4309 63.74 86.0829 63.02C85.7349 62.3 85.5609 61.442 85.5609 60.446V54.812H87.9009V60.086C87.9009 61.142 88.1409 61.946 88.6209 62.498C89.1129 63.038 89.8149 63.308 90.7269 63.308C91.3869 63.308 91.9509 63.164 92.4189 62.876C92.8989 62.588 93.2709 62.18 93.5349 61.652C93.7989 61.112 93.9309 60.488 93.9309 59.78L94.7409 60.23C94.6449 61.274 94.3809 62.174 93.9489 62.93C93.5169 63.674 92.9589 64.25 92.2749 64.658C91.5909 65.054 90.8229 65.252 89.9709 65.252ZM94.5249 65L93.9309 61.328V54.812H96.2709V61.688L96.8649 65H94.5249ZM98.8885 54.812H101.228V58.358L101.12 58.718V60.77L101.228 61.4V67.97H98.8885V54.812ZM100.328 59.906C100.556 58.826 100.934 57.89 101.462 57.098C101.99 56.294 102.638 55.67 103.406 55.226C104.186 54.782 105.05 54.56 105.998 54.56C106.994 54.56 107.876 54.788 108.644 55.244C109.412 55.688 110.012 56.312 110.444 57.116C110.876 57.908 111.092 58.838 111.092 59.906C111.092 60.962 110.876 61.892 110.444 62.696C110.012 63.5 109.412 64.13 108.644 64.586C107.876 65.03 106.994 65.252 105.998 65.252C105.05 65.252 104.192 65.03 103.424 64.586C102.656 64.142 102.002 63.518 101.462 62.714C100.934 61.91 100.556 60.974 100.328 59.906ZM108.716 59.906C108.716 59.222 108.572 58.622 108.284 58.106C108.008 57.578 107.624 57.17 107.132 56.882C106.64 56.582 106.076 56.432 105.44 56.432C104.804 56.432 104.204 56.582 103.64 56.882C103.088 57.17 102.602 57.578 102.182 58.106C101.762 58.622 101.42 59.222 101.156 59.906C101.42 60.59 101.762 61.196 102.182 61.724C102.602 62.24 103.088 62.648 103.64 62.948C104.204 63.236 104.804 63.38 105.44 63.38C106.076 63.38 106.64 63.236 107.132 62.948C107.624 62.648 108.008 62.24 108.284 61.724C108.572 61.196 108.716 60.59 108.716 59.906Z" fill="#7AB8FF"/>
</svg>
