<svg width="57" height="56" viewBox="0 0 57 56" fill="none" xmlns="http://www.w3.org/2000/svg">
<path fill-rule="evenodd" clip-rule="evenodd" d="M56.2502 26.988C56.2502 41.893 44.1673 53.9759 29.2622 53.9759H28.5634C27.4589 53.9759 26.5634 53.0805 26.5634 51.9759V39.7831C26.5634 38.6786 25.668 37.7831 24.5634 37.7831H4.27429C3.16972 37.7831 2.27429 36.8877 2.27429 35.7831V26.988C2.27429 12.0829 14.3572 0 29.2622 0C44.1673 0 56.2502 12.0829 56.2502 26.988ZM29.2618 8.77104C28.1439 8.77104 27.2377 9.67726 27.2377 10.7951V21.9827C25.2596 22.7834 23.8642 24.7227 23.8642 26.9879C23.8642 29.9689 26.2808 32.3855 29.2618 32.3855C30.0536 32.3855 30.8056 32.215 31.483 31.9087C31.5795 32.1107 31.7114 32.3 31.8787 32.4674L35.9269 36.5155C36.7174 37.306 37.999 37.306 38.7894 36.5155C39.5799 35.7251 39.5799 34.4435 38.7894 33.653L34.7412 29.6049C34.5739 29.4375 34.3846 29.3056 34.1826 29.2092C34.4889 28.5317 34.6594 27.7797 34.6594 26.9879C34.6594 24.7227 33.264 22.7834 31.2859 21.9827V10.7951C31.2859 9.67726 30.3797 8.77104 29.2618 8.77104ZM0.25 53.9759C0.25 52.8581 1.15622 51.9518 2.2741 51.9518H18.4669C19.5847 51.9518 20.491 52.8581 20.491 53.9759C20.491 55.0938 19.5847 56 18.4669 56H2.2741C1.15622 56 0.25 55.0938 0.25 53.9759ZM2.2741 43.8554C1.15622 43.8554 0.25 44.7616 0.25 45.8795C0.25 46.9974 1.15622 47.9036 2.2741 47.9036H13.0693C14.1872 47.9036 15.0934 46.9974 15.0934 45.8795C15.0934 44.7616 14.1872 43.8554 13.0693 43.8554H2.2741Z" fill="black"/>
</svg>
