<svg width="64" height="64" viewBox="0 0 64 64" fill="none" xmlns="http://www.w3.org/2000/svg">
<path fill-rule="evenodd" clip-rule="evenodd" d="M58.6654 32C58.6654 46.7276 46.7263 58.6666 31.9987 58.6666C17.2711 58.6666 5.33203 46.7276 5.33203 32C5.33203 17.2724 17.2711 5.33331 31.9987 5.33331C46.7263 5.33331 58.6654 17.2724 58.6654 32ZM31.9898 31.25C29.4624 31.2454 27.415 29.1951 27.415 26.6667C27.415 24.1354 29.4671 22.0833 31.9984 22.0833C34.5297 22.0833 36.5817 24.1354 36.5817 26.6667C36.5817 27.0809 36.9175 27.4167 37.3317 27.4167C37.7459 27.4167 38.0817 27.0809 38.0817 26.6667C38.0817 23.5611 35.7546 20.999 32.749 20.6292V17.3333C32.749 16.9191 32.4132 16.5833 31.999 16.5833C31.5848 16.5833 31.249 16.9191 31.249 17.3333V20.629C28.2428 20.9983 25.915 23.5606 25.915 26.6667C25.915 30.0264 28.6386 32.75 31.9984 32.75L32.0069 32.75C34.5343 32.7546 36.5817 34.8048 36.5817 37.3333C36.5817 39.8646 34.5297 41.9166 31.9984 41.9166C29.4671 41.9166 27.415 39.8646 27.415 37.3333C27.415 36.9191 27.0793 36.5833 26.665 36.5833C26.2508 36.5833 25.915 36.9191 25.915 37.3333C25.915 40.4393 28.2428 43.0017 31.249 43.3709V46.6666C31.249 47.0808 31.5848 47.4166 31.999 47.4166C32.4132 47.4166 32.749 47.0808 32.749 46.6666V43.3708C35.7546 43.0009 38.0817 40.4389 38.0817 37.3333C38.0817 33.9736 35.3581 31.25 31.9984 31.25L31.9898 31.25Z" fill="black"/>
</svg>
