<svg width="64" height="64" viewBox="0 0 64 64" fill="none" xmlns="http://www.w3.org/2000/svg">
<path fill-rule="evenodd" clip-rule="evenodd" d="M14.3418 13.1819L27.6694 7.25852C30.4274 6.03273 33.5756 6.03272 36.3337 7.25851L49.6083 13.1584C53.4902 14.8836 56.0383 18.7613 55.7663 23.0006C54.723 39.2614 50.0741 46.6122 37.5072 55.1402C34.1907 57.3908 29.8159 57.3853 26.497 55.1383C13.9687 46.6565 9.1472 39.4081 8.18818 22.9436C7.94288 18.7321 10.4869 14.8952 14.3418 13.1819ZM40.5659 24.4937C40.8387 24.1819 40.8071 23.7081 40.4954 23.4354C40.1837 23.1626 39.7098 23.1942 39.4371 23.5059L30.7338 33.4525C30.6457 33.5532 30.494 33.5666 30.3895 33.4831L24.47 28.7475C24.1466 28.4887 23.6746 28.5411 23.4159 28.8646C23.1571 29.188 23.2095 29.66 23.533 29.9188L29.4525 34.6544C30.1838 35.2394 31.246 35.145 31.8627 34.4402L40.5659 24.4937Z" fill="black"/>
</svg>
