<svg width="64" height="64" viewBox="0 0 64 64" fill="none" xmlns="http://www.w3.org/2000/svg">
<path fill-rule="evenodd" clip-rule="evenodd" d="M15.9987 8.16577H25.332C31.2231 8.16577 35.9987 12.9414 35.9987 18.8324V50.8324H27.9987C27.9987 45.6778 23.82 41.4991 18.6654 41.4991C14.2489 41.4991 10.551 44.5648 9.58054 48.6862C7.00005 46.7394 5.33203 43.6474 5.33203 40.1658V18.8324C5.33203 12.9414 10.1077 8.16577 15.9987 8.16577ZM29.8259 20.9347C30.1376 21.2074 30.1692 21.6813 29.8965 21.993L21.1932 31.9395C20.5765 32.6443 19.5143 32.7387 18.783 32.1537L12.8635 27.4181C12.5401 27.1593 12.4876 26.6874 12.7464 26.3639C13.0051 26.0405 13.4771 25.988 13.8006 26.2468L19.72 30.9824C19.8245 31.066 19.9763 31.0525 20.0644 30.9518L28.7676 21.0052C29.0404 20.6935 29.5142 20.6619 29.8259 20.9347ZM57.187 49.1847C56.4088 44.8159 52.5911 41.4991 47.9987 41.4991C44.6036 41.4991 41.6319 43.3119 39.9987 46.0223V18.8324H45.8896C47.2446 18.8324 48.5488 19.3482 49.5373 20.2749L56.9797 27.2521C58.0552 28.2604 58.6654 29.6688 58.6654 31.143V45.4991C58.6654 46.9288 58.1028 48.2271 57.187 49.1847ZM23.9987 50.8324C23.9987 53.778 21.6109 56.1658 18.6654 56.1658C15.7198 56.1658 13.332 53.778 13.332 50.8324C13.332 50.7205 13.3355 50.6093 13.3423 50.499C13.5144 47.7088 15.8318 45.4991 18.6654 45.4991C21.6109 45.4991 23.9987 47.8869 23.9987 50.8324ZM53.332 50.8324C53.332 53.778 50.9442 56.1658 47.9987 56.1658C45.0532 56.1658 42.6654 53.778 42.6654 50.8324C42.6654 47.8869 45.0532 45.4991 47.9987 45.4991C50.9442 45.4991 53.332 47.8869 53.332 50.8324Z" fill="black"/>
</svg>
