<svg width="56" height="56" viewBox="0 0 56 56" fill="none" xmlns="http://www.w3.org/2000/svg">
<g clip-path="url(#clip0_794_2975)">
<path d="M28 0C12.5607 0 0 12.5607 0 28C0 43.4393 12.5607 56 28 56C43.4393 56 56 43.4393 56 28C56 12.5607 43.4393 0 28 0ZM44.6317 29.2375L33.7463 40.1228C33.4047 40.4645 32.9568 40.6353 32.509 40.6353C32.0611 40.6353 31.6133 40.4645 31.2715 40.1227C30.5881 39.4393 30.5881 38.3312 31.2715 37.6479L39.1694 29.75H12.6057C11.6392 29.75 10.8557 28.9664 10.8557 28C10.8557 27.0336 11.6392 26.25 12.6057 26.25H39.1695L31.2714 18.352C30.5879 17.6685 30.5879 16.5606 31.2714 15.8772C31.9549 15.1937 33.0629 15.1937 33.7462 15.8772L44.6317 26.7626C44.9599 27.0909 45.1443 27.5359 45.1443 28.0001C45.1443 28.4643 44.9599 28.9092 44.6317 29.2375Z" fill="#7AB8FF"/>
</g>
<defs>
<clipPath id="clip0_794_2975">
<rect width="56" height="56" fill="white"/>
</clipPath>
</defs>
</svg>
