<svg width="56" height="56" viewBox="0 0 56 56" fill="none" xmlns="http://www.w3.org/2000/svg">
<path d="M28 0C12.5607 0 0 12.5607 0 28C0 43.4393 12.5607 56 28 56C43.4393 56 56 43.4393 56 28C56 12.5607 43.4394 0 28 0ZM43.3943 29.75H16.8306L24.7285 37.6479C25.412 38.3312 25.412 39.4393 24.7285 40.1227C24.3868 40.4644 23.9389 40.6352 23.4911 40.6352C23.0431 40.6352 22.5955 40.4644 22.2538 40.1226L11.3685 29.2373C10.6851 28.5539 10.6851 27.4458 11.3685 26.7624L22.2539 15.877C22.9373 15.1935 24.0453 15.1935 24.7287 15.877C25.4122 16.5605 25.4122 17.6684 24.7287 18.3518L16.8305 26.25H43.3943C44.3609 26.25 45.1443 27.0336 45.1443 28C45.1443 28.9664 44.3607 29.75 43.3943 29.75Z" fill="#7AB8FF"/>
</svg>
