<svg width="27" height="27" viewBox="0 0 27 27" fill="none" xmlns="http://www.w3.org/2000/svg">
<path d="M11.2869 3.68034C12.1922 1.77322 14.8078 1.77322 15.7131 3.68033L17.2776 6.97633C17.6371 7.73364 18.332 8.25855 19.1358 8.37999L22.6343 8.90853C24.6585 9.21435 25.4668 11.8007 24.002 13.2852L21.4705 15.8508C20.8889 16.4403 20.6235 17.2896 20.7608 18.122L21.3584 21.7446C21.7041 23.8407 19.5881 25.4392 17.7775 24.4496L14.6484 22.7392C13.9295 22.3462 13.0705 22.3462 12.3516 22.7392L9.22248 24.4496C7.41194 25.4392 5.29585 23.8407 5.64163 21.7446L6.23924 18.122C6.37655 17.2896 6.11113 16.4403 5.52947 15.8508L2.99798 13.2852C1.53322 11.8007 2.34149 9.21435 4.36574 8.90853L7.86417 8.37999C8.668 8.25855 9.36289 7.73364 9.72237 6.97633L11.2869 3.68034Z" fill="#7AB8FF"/>
</svg>
