<svg width="34" height="34" viewBox="0 0 34 34" fill="none" xmlns="http://www.w3.org/2000/svg">
<path d="M13.7201 2.453C15.0612 -0.372352 18.9362 -0.372357 20.2773 2.453L22.5952 7.33595C23.1278 8.4579 24.1572 9.23554 25.3481 9.41546L30.5309 10.1985C33.5298 10.6515 34.7273 14.4832 32.5572 16.6825L28.8069 20.4833C27.9452 21.3566 27.552 22.6149 27.7554 23.848L28.6407 29.2149C29.153 32.3203 26.018 34.6884 23.3358 33.2222L18.7001 30.6883C17.6349 30.1061 16.3625 30.1061 15.2973 30.6883L10.6616 33.2222C7.97935 34.6884 4.8444 32.3203 5.35667 29.2149L6.24201 23.848C6.44544 22.6149 6.05222 21.3566 5.1905 20.4833L1.44016 16.6825C-0.729859 14.4832 0.467578 10.6515 3.46647 10.1985L8.64932 9.41546C9.84018 9.23554 10.8696 8.4579 11.4022 7.33595L13.7201 2.453Z" fill="#BEBEBE"/>
</svg>
