<svg width="64" height="64" viewBox="0 0 64 64" fill="none" xmlns="http://www.w3.org/2000/svg">
<path d="M32 0C14.3551 0 0 14.3551 0 32C0 49.6449 14.3551 64 32 64C49.6449 64 64 49.6449 64 32C64 14.3551 49.6449 0 32 0ZM46.4404 37.1527C46.4404 38.2572 45.5449 39.1527 44.4404 39.1527C43.3359 39.1527 42.4404 38.2572 42.4404 37.1527V24.3878L20.9737 45.8546C20.5833 46.2451 20.0714 46.4404 19.5596 46.4404C19.0478 46.4404 18.536 46.2451 18.1454 45.8545C17.3644 45.0735 17.3644 43.8071 18.1454 43.0261L39.6121 21.5594H26.8469C25.7424 21.5594 24.8469 20.6639 24.8469 19.5594C24.8469 18.4549 25.7424 17.5594 26.8469 17.5594H44.4404C45.5449 17.5594 46.4404 18.4549 46.4404 19.5594V37.1527Z" fill="white"/>
</svg>
