<svg width="24" height="24" viewBox="0 0 24 24" fill="none" xmlns="http://www.w3.org/2000/svg">
<path fill-rule="evenodd" clip-rule="evenodd" d="M11.9993 23.3334C18.2586 23.3334 23.3327 18.2592 23.3327 12C23.3327 5.74079 18.2586 0.666687 11.9993 0.666687C5.74012 0.666687 0.666016 5.74079 0.666016 12C0.666016 18.2592 5.74012 23.3334 11.9993 23.3334ZM12 5C12.5523 5 13 5.44772 13 6V10.9342C13.5978 11.28 14 11.9264 14 12.6667C14 13.7712 13.1046 14.6667 12 14.6667C10.8954 14.6667 10 13.7712 10 12.6667C10 11.9264 10.4022 11.28 11 10.9342V6C11 5.44772 11.4477 5 12 5Z" fill="white"/>
</svg>
