<svg width="20" height="17" viewBox="0 0 20 17" fill="none" xmlns="http://www.w3.org/2000/svg">
<path d="M0.561128 7.88826C0.605972 7.86583 0.650838 7.84453 0.694561 7.82434C1.45468 7.47221 2.22489 7.14251 2.99397 6.8128C3.03545 6.8128 3.10494 6.76458 3.14418 6.74888C3.2036 6.72308 3.26303 6.69841 3.32245 6.67262C3.4368 6.62328 3.55116 6.57505 3.6644 6.52571C3.8931 6.42814 4.12068 6.33057 4.34938 6.23301L5.71826 5.64649C6.63085 5.25623 7.54458 4.86484 8.45717 4.47458C9.36975 4.08432 10.2835 3.69293 11.196 3.30267C12.1086 2.91241 13.0223 2.52103 13.9349 2.13076C14.8475 1.7405 15.7612 1.34911 16.6738 0.958851C16.8768 0.871378 17.0965 0.741287 17.314 0.703158C17.4967 0.670636 17.675 0.607838 17.8588 0.573073C18.2075 0.506908 18.592 0.479995 18.9261 0.624662C19.0416 0.675127 19.1481 0.745778 19.2367 0.834372C19.6605 1.25379 19.601 1.94236 19.5114 2.53224C18.8869 6.64346 18.2624 10.7558 17.6368 14.867C17.5516 15.4311 17.435 16.0502 16.99 16.4068C16.6133 16.7084 16.0774 16.7421 15.6121 16.6142C15.1468 16.4853 14.7365 16.215 14.334 15.9492C12.6647 14.8435 10.9943 13.7377 9.32491 12.632C8.92803 12.3696 8.48632 12.0264 8.49081 11.5498C8.49305 11.2627 8.66456 11.007 8.83946 10.7794C10.2902 8.88635 12.3833 7.58547 13.9405 5.77995C14.1603 5.52538 14.3329 5.06559 14.0314 4.91868C13.852 4.8312 13.6457 4.95007 13.482 5.06334C11.4236 6.49318 9.36639 7.92415 7.30802 9.35399C6.63647 9.82052 5.93241 10.3005 5.12297 10.4149C4.39873 10.5181 3.67001 10.3162 2.96931 10.1098C2.38184 9.93715 1.79548 9.75996 1.21138 9.57716C0.900831 9.48072 0.58019 9.37642 0.340271 9.15774C0.100352 8.93906 -0.0375262 8.57122 0.107098 8.27965C0.197908 8.09685 0.373927 7.98134 0.558911 7.88714L0.561128 7.88826Z" fill="black"/>
</svg>
