<svg width="21" height="21" viewBox="0 0 21 21" fill="none" xmlns="http://www.w3.org/2000/svg">
<path d="M13.6182 15.1144C9.52277 15.1144 6.19082 11.7803 6.1897 7.68369C6.19082 6.64523 7.03614 5.80078 8.07205 5.80078C8.17856 5.80078 8.28394 5.80975 8.38484 5.82769C8.60682 5.8647 8.8176 5.93984 9.01155 6.05311C9.03958 6.06993 9.05863 6.09685 9.06312 6.12825L9.49587 8.85672C9.50147 8.88812 9.49138 8.92065 9.47008 8.9442C9.23128 9.20886 8.92634 9.3995 8.58664 9.49482L8.42296 9.54081L8.48462 9.69893C9.04293 11.1209 10.1797 12.2569 11.6024 12.8177L11.7605 12.8805L11.8065 12.7167C11.9018 12.3769 12.0924 12.0719 12.357 11.833C12.376 11.8151 12.4018 11.8061 12.4276 11.8061C12.4332 11.8061 12.4388 11.8061 12.4455 11.8072L15.1732 12.2401C15.2057 12.2457 15.2326 12.2637 15.2494 12.2917C15.3615 12.4857 15.4367 12.6977 15.4748 12.9197C15.4927 13.0184 15.5006 13.1227 15.5006 13.2315C15.5006 14.2688 14.6564 15.1133 13.6182 15.1144Z" fill="black"/>
<path d="M20.8811 9.53425C20.6602 7.03791 19.5167 4.72213 17.6613 3.01416C15.7946 1.29611 13.373 0.349609 10.8404 0.349609C5.2819 0.349609 0.759331 4.87352 0.759331 10.4336C0.759331 12.2997 1.27391 14.1176 2.24816 15.7011L0.0754395 20.5121L7.03197 19.7708C8.24165 20.2665 9.52196 20.5177 10.8393 20.5177C11.1857 20.5177 11.5411 20.4997 11.8976 20.4627C12.2115 20.4291 12.5288 20.3797 12.8405 20.3169C17.4953 19.3761 20.8934 15.2435 20.9203 10.4875V10.4336C20.9203 10.1309 20.9069 9.82806 20.88 9.53537L20.8811 9.53425ZM7.29991 17.6591L3.45113 18.0696L4.60027 15.5228L4.37044 15.2144C4.35362 15.1919 4.33681 15.1695 4.31775 15.1437C3.31996 13.7655 2.79302 12.1371 2.79302 10.4348C2.79302 5.99609 6.40302 2.38504 10.8404 2.38504C14.9975 2.38504 18.5212 5.62938 18.8609 9.77087C18.8788 9.99292 18.8889 10.2161 18.8889 10.4359C18.8889 10.4987 18.8878 10.5604 18.8866 10.6265C18.8014 14.3396 16.2083 17.4932 12.5804 18.2961C12.3034 18.3578 12.0198 18.4049 11.7373 18.4352C11.4436 18.4688 11.142 18.4856 10.8426 18.4856C9.77645 18.4856 8.74055 18.2793 7.76181 17.8711C7.65306 17.8273 7.54655 17.7802 7.44677 17.732L7.30104 17.6614L7.29991 17.6591Z" fill="black"/>
</svg>
